<?xml version="1.0" encoding="utf-8"?>
<!-- Generator: Adobe Illustrator 27.7.0, SVG Export Plug-In . SVG Version: 6.00 Build 0)  -->
<svg version="1.1" id="Capa_1" xmlns="http://www.w3.org/2000/svg" xmlns:xlink="http://www.w3.org/1999/xlink" x="0px" y="0px"
	 viewBox="0 0 1238.42 283.46" style="enable-background:new 0 0 1238.42 283.46;" xml:space="preserve">
<style type="text/css">
	.st0{fill-rule:evenodd;clip-rule:evenodd;fill:#231F20;}
	.st1{fill-rule:evenodd;clip-rule:evenodd;fill:#E11B22;}
	.st2{fill-rule:evenodd;clip-rule:evenodd;fill:#FFFFFF;}
</style>
<g>
	<g>
		<path class="st0" d="M745.44,262.35h32.12V83.81h-32.12V219.9c-23.11,26.92-28.93,6.81-28.93-3.3V83.81h-32.12v139.12
			c0,22.71,5.68,37.19,20.12,39.49c9.62,1.53,23.52,0.01,40.94-21.28V262.35L745.44,262.35z M485.84,262.35h36.21v-95.81
			l43.06-142.8h-36.21l-24.99,89.73l-24.99-89.73h-36.21l43.13,143.02V262.35L485.84,262.35z M611.69,81.8L611.69,81.8
			c26.43,0,48.05,21.62,48.05,48.05c0,30.77,0,56.63,0,84.46c0,26.42-21.62,48.04-48.05,48.04l0,0c-26.42,0-48.04-21.62-48.04-48.04
			v-84.46C563.64,103.42,585.26,81.8,611.69,81.8L611.69,81.8z M596.34,218.64c0,8.44,6.91,15.34,15.34,15.34l0,0
			c8.44,0,15.34-6.9,15.34-15.34c0-30.84,0-61.58,0-92.82c0-8.44-6.91-15.34-15.34-15.34l0,0c-8.44,0-15.34,6.9-15.34,15.34
			C596.34,158.04,596.34,185.14,596.34,218.64z"/>
		<g>
			<path class="st0" d="M1022.36,262.35h32.12v-18.98c6.11,7.53,16.16,21.21,35.54,18.98c32.43-3.74,26.52-46.73,26.52-46.73
				s0-61.38,0-91.56c0-30.19-10.67-42.26-29.54-42.26c-15.42,0-28.32,13.62-32.52,18.59V23.73h-32.12V262.35L1022.36,262.35z
				 M1054.48,225.44V118.93c4.09-4.78,9.58-8.9,16.17-8.46c15.09,1.01,13.58,20.12,13.58,20.12s-0.25,70.68-0.25,84.27
				c0,13.58-5.28,18.36-14.09,18.61C1062.37,233.7,1056.14,227.31,1054.48,225.44z"/>
			<path class="st0" d="M961.64,262.35h32.12V83.81h-32.12V219.9c-23.11,26.92-28.93,6.81-28.93-3.3V83.81h-32.12v139.12
				c0,22.71,5.68,37.19,20.12,39.49c9.62,1.53,23.52,0.01,40.94-21.28V262.35z"/>
			<polygon class="st0" points="821.85,262.35 858.06,262.35 858.06,57.79 896,57.79 896,23.73 783.91,23.73 783.91,57.79 
				821.85,57.79 			"/>
			<path class="st0" d="M1190.38,81.8L1190.38,81.8c26.43,0,48.05,21.62,48.05,48.05v48.3h-63.39v40.5c0,8.44,6.9,15.34,15.34,15.34
				l0,0c8.44,0,15.34-6.9,15.34-15.34v-19.87h32.7v15.54c0,26.42-21.62,48.04-48.05,48.04l0,0c-26.43,0-48.04-21.62-48.04-48.04
				v-84.46C1142.33,103.42,1163.95,81.8,1190.38,81.8L1190.38,81.8z M1205.72,150.97v-25.15c0-8.44-6.9-15.34-15.34-15.34l0,0
				c-8.44,0-15.34,6.9-15.34,15.34v25.15H1205.72z"/>
		</g>
	</g>
	<g>
		<path class="st1" d="M227.07,0.02c35.53,0.06,82.54,0.51,117.25,3.74C372.06,6.33,379,10.48,386.3,17.1
			c18.91,17.14,23.13,63.54,23.75,109.71c0.14,9.94,0.14,19.91,0,29.84c-0.62,46.17-4.84,92.57-23.75,109.71
			c-7.3,6.62-14.24,10.77-41.97,13.35c-34.71,3.23-81.72,3.68-117.25,3.74c-14.67,0.02-29.34,0.02-44,0
			c-35.53-0.06-82.54-0.51-117.25-3.74c-27.74-2.58-34.67-6.73-41.97-13.35c-19.07-17.29-23.2-64.34-23.77-110.9
			c-0.11-8.75-0.11-17.51-0.01-26.26C0.58,82.25,4.62,34.54,23.85,17.1c7.3-6.62,14.23-10.77,41.97-13.35
			c34.71-3.23,81.72-3.68,117.25-3.73C197.74-0.01,212.41-0.01,227.07,0.02z"/>
		<polygon class="st2" points="164.94,82.78 164.94,204.45 268.42,141.73 		"/>
	</g>
</g>
</svg>
